<svg id="图层_1" data-name="图层 1" xmlns="http://www.w3.org/2000/svg" viewBox="0 0 200.2 200"><title>阿里云</title><path d="M52,125.7a7,7,0,0,1-5.43-6.85V81.14A7.29,7.29,0,0,1,52,74.29L85.71,66.7l3.54-14.91H50.1c-13.91,0-25,11.5-25,25.7V122c0,14.18,11.32,25.94,25,25.94H89.25L85.71,133,52,125.7Zm98.1-73.91H110.71l3.53,14.92L148,74.31a7,7,0,0,1,5.42,6.85v37.69A7.27,7.27,0,0,1,148,125.7l-33.73,7.59-3.53,14.92h39.38c13.68,0,25-11.5,25-25.94V77.49c-.24-14.21-11.33-25.7-25-25.7ZM85.7,98h28.78v3.67H85.71V98Z" fill="#2ee0e5"/></svg>