<svg id="图层_1" data-name="图层 1" xmlns="http://www.w3.org/2000/svg" viewBox="0 0 200.2 200"><title>添加集群</title><path d="M28.77,84.33l-3.9-.85a75.83,75.83,0,0,0-1.33,8.23l4,.42A73.64,73.64,0,0,1,28.77,84.33Z" fill="#2ee0e5"/><path d="M33.79,69.37l-3.63-1.68a77.12,77.12,0,0,0-3.08,7.75l3.79,1.27A74.73,74.73,0,0,1,33.79,69.37Z" fill="#2ee0e5"/><path d="M27.1,100h-4a79.38,79.38,0,0,0,.45,8.32l4-.43A74.1,74.1,0,0,1,27.1,100Z" fill="#2ee0e5"/><path d="M41.93,55.84l-3.19-2.42a78,78,0,0,0-4.67,6.9l3.42,2.06A74.4,74.4,0,0,1,41.93,55.84Z" fill="#2ee0e5"/><path d="M30.23,132.35a77.22,77.22,0,0,0,3.91,7.35l3.43-2.06a71.73,71.73,0,0,1-3.71-7Z" fill="#2ee0e5"/><path d="M28.81,115.71l-3.91.86a79,79,0,0,0,2.23,8l3.79-1.29A70.79,70.79,0,0,1,28.81,115.71Z" fill="#2ee0e5"/><path d="M65.81,35.48,63.93,32a79.52,79.52,0,0,0-7.13,4.32l2.25,3.3A75,75,0,0,1,65.81,35.48Z" fill="#2ee0e5"/><path d="M128.49,28.35a78.93,78.93,0,0,0-7.91-2.65l-1.06,3.86A73.14,73.14,0,0,1,127,32.07Z" fill="#2ee0e5"/><path d="M173,75.21a76,76,0,0,0-3.1-7.73l-3.63,1.68a71.54,71.54,0,0,1,2.94,7.34Z" fill="#2ee0e5"/><path d="M172.66,91.9l4-.43a78.44,78.44,0,0,0-1.36-8.23l-3.9.87A75.28,75.28,0,0,1,172.66,91.9Z" fill="#2ee0e5"/><path d="M38.83,146.59a79.73,79.73,0,0,0,5.4,6.35l2.91-2.75a75.14,75.14,0,0,1-5.13-6Z" fill="#2ee0e5"/><path d="M96,27.06l-.22-4a78.8,78.8,0,0,0-8.28.91l.65,4A70.83,70.83,0,0,1,96,27.06Z" fill="#2ee0e5"/><path d="M112.43,23.93a79.32,79.32,0,0,0-8.28-.88l-.21,4a71.48,71.48,0,0,1,7.86.83Z" fill="#2ee0e5"/><path d="M80.46,29.62l-1.07-3.85a75.62,75.62,0,0,0-7.9,2.67L73,32.15A72.27,72.27,0,0,1,80.46,29.62Z" fill="#2ee0e5"/><path d="M143.21,36.14a77.37,77.37,0,0,0-7.15-4.3l-1.87,3.54A73.55,73.55,0,0,1,141,39.45Z" fill="#2ee0e5"/><path d="M141.08,160.37l2.25,3.3a75.24,75.24,0,0,0,6.63-5l-2.59-3A75,75,0,0,1,141.08,160.37Z" fill="#2ee0e5"/><path d="M153.11,150.14l2.9,2.75a79.73,79.73,0,0,0,5.4-6.35l-3.19-2.42A75.2,75.2,0,0,1,153.11,150.14Z" fill="#2ee0e5"/><path d="M149.85,41.17l-2.59,3.06A71.82,71.82,0,0,1,153,49.65l2.9-2.75A78.05,78.05,0,0,0,149.85,41.17Z" fill="#2ee0e5"/><path d="M161.32,53.24l-3.18,2.43a74.19,74.19,0,0,1,4.45,6.52L166,60.12A76.5,76.5,0,0,0,161.32,53.24Z" fill="#2ee0e5"/><path d="M162.67,137.58l3.42,2.06a76.19,76.19,0,0,0,3.91-7.36l-3.63-1.68A73.88,73.88,0,0,1,162.67,137.58Z" fill="#2ee0e5"/><path d="M50.18,41.32a78,78,0,0,0-6,5.74L47,49.81a75.38,75.38,0,0,1,5.73-5.44Z" fill="#2ee0e5"/><path d="M169.3,123.26l3.79,1.27a77.19,77.19,0,0,0,2.23-8l-3.91-.85A72.28,72.28,0,0,1,169.3,123.26Z" fill="#2ee0e5"/><path d="M173.1,99.79V100a74.06,74.06,0,0,1-.42,7.89l4,.43a79.38,79.38,0,0,0,.44-8.32v-.16Z" fill="#2ee0e5"/><path d="M79.54,174.17A75.37,75.37,0,0,0,87.69,176l.64-3.95a71.65,71.65,0,0,1-7.72-1.68Z" fill="#2ee0e5"/><path d="M96.18,172.85l-.21,4c1.36.07,2.75.11,4.13.11s2.81,0,4.2-.12l-.21-4A77.3,77.3,0,0,1,96.18,172.85Z" fill="#2ee0e5"/><path d="M50.29,158.67a77.12,77.12,0,0,0,6.63,5l2.25-3.31a72.8,72.8,0,0,1-6.29-4.78Z" fill="#2ee0e5"/><path d="M64.07,168a77.51,77.51,0,0,0,7.57,3.51l1.48-3.72a72.89,72.89,0,0,1-7.18-3.32Z" fill="#2ee0e5"/><path d="M112,172l.64,3.95a77.13,77.13,0,0,0,8.14-1.79l-1.07-3.85A72.58,72.58,0,0,1,112,172Z" fill="#2ee0e5"/><path d="M127.15,167.77l1.48,3.72A78.61,78.61,0,0,0,136.2,168l-1.88-3.53A73.81,73.81,0,0,1,127.15,167.77Z" fill="#2ee0e5"/><polygon points="103.1 49.95 97.1 49.95 97.1 96.95 50.1 96.95 50.1 102.95 97.1 102.95 97.1 149.95 103.1 149.95 103.1 102.95 150.1 102.95 150.1 96.95 103.1 96.95 103.1 49.95" fill="#2ee0e5"/></svg>