<?xml version="1.0" encoding="utf-8"?>
<!-- Generator: Adobe Illustrator 22.1.0, SVG Export Plug-In . SVG Version: 6.00 Build 0)  -->
<svg version="1.1" id="图层_1" xmlns="http://www.w3.org/2000/svg" xmlns:xlink="http://www.w3.org/1999/xlink" x="0px" y="0px"
	 viewBox="0 0 200.2 200" style="enable-background:new 0 0 200.2 200;" xml:space="preserve">
<style type="text/css">
	.st0{fill:#2EE0E5;}
</style>
<title>青云</title>
<path class="st0" d="M95.8,25L74.4,38l21.4,12.7V25z M102.2,50.7l21.4-12.8L102.2,25V50.7z M102.2,157.9l21.4-12.9l-21.4-12.8V157.9
	z M95.8,157.9v-25.7l-21.4,12.9L95.8,157.9 M155.8,127.7L134.4,115v25.7L155.8,127.7 M65.8,115l-21.4,12.8l21.4,12.9V115z
	 M134.4,104.3l21.4-12.9l-21.4-12.8V104.3z M65.8,104.3V78.6L44.4,91.4L65.8,104.3 M155.8,55l-21.4-12.8v25.7L155.8,55 M65.8,42.2
	l-21.4,13l21.4,12.7V42.2z M158,87.2V61.4l-21.4,12.9L158,87.2 M42.3,87.1l21.4-12.9L42.2,61.4L42.3,87.1z M63.7,108.6L42.2,95.7
	v25.7L63.7,108.6 M136.5,108.6l21.5,12.8V95.7L136.5,108.6 M72.2,115v25.7l21.4-12.9L72.2,115 M128,140.7V115l-21.4,12.8L128,140.7
	 M72.2,70l21.4-12.9L72.2,44.3V70z M128,149.3l-21.4,13L128,175V149.3z M128,67.9V44.3l-21.5,11.9L128,67.9"/>
</svg>
