<svg id="图层_1" data-name="图层 1" xmlns="http://www.w3.org/2000/svg" viewBox="0 0 200.2 200"><title>腾讯云</title><path d="M93.27,46.55c-5.92.81-14.54,4.11-18.63,7.15a9.76,9.76,0,0,1-1.45.9A37.47,37.47,0,0,0,70.09,57,46.75,46.75,0,0,0,57.5,73.66a56.14,56.14,0,0,0-3.13,9.41c-.42,1.65-1,2.4-1.92,2.4-1.57,0-9.65,3.45-12.14,5.17a56.21,56.21,0,0,0-7.19,6.46c-4.23,5.78-5,7.22-6.37,11.45a33.41,33.41,0,0,0-1.65,10.71,32.92,32.92,0,0,0,10.07,24.36,32.66,32.66,0,0,0,14.13,8.6c6,1.66,4.2,1.63,50.65,1.63,39,0,43.07,0,45.69-.5,3.19-.58,7.94-1.84,8.5-2.27a8.18,8.18,0,0,1,1.42-.69,36.83,36.83,0,0,0,6.94-4.51,35,35,0,0,0,12.6-26.66c0-3-1.17-9.71-2-11.22a4.23,4.23,0,0,1-.46-1.26,29.64,29.64,0,0,0-3-5.79q-.73-.92-1.38-1.89a24.68,24.68,0,0,0-5.59-5.9c-2.91-2.49-4.81-3.79-6.31-4.39a6,6,0,0,1-1.38-.66,69.34,69.34,0,0,0-7.34-2.67,51.66,51.66,0,0,0-5.57-.48c-5-.18-8.71.18-11.27,1.14l-3.06,1.09a33.8,33.8,0,0,0-7.34,4,206,206,0,0,0-15.9,14.28c-1.69,1.72-21.64,20.94-28.22,27.2-1.65,1.57-4.12,4-5.5,5.38l-2.5,2.5-5-.22q-3.84-.14-7.67-.6a20.65,20.65,0,0,1-16.38-15,30.1,30.1,0,0,1-.12-10.37,23.34,23.34,0,0,1,7-11.06A23.78,23.78,0,0,1,59.88,98.4c5.41,0,11.42,2.8,16.74,7.76,1,.92,2.53,2.24,3.31,2.91s2.31,2,3.31,2.91a8.62,8.62,0,0,0,2.25,1.75c.54,0,1.72-1,6-5.17a30.63,30.63,0,0,0,3.67-4,16.12,16.12,0,0,0-2.92-2.85c-1.62-1.39-3.15-2.71-3.43-3-.57-.66-5.94-5-8.71-7.1a37.44,37.44,0,0,0-9.39-4.93,9.66,9.66,0,0,1-2.78-1.35c-.16-.39,1.74-5.83,2.64-7.51a36.12,36.12,0,0,1,7.67-9.87,30.93,30.93,0,0,1,12.26-6.78l3.15-.81a23.89,23.89,0,0,1,6.32-.54,23.92,23.92,0,0,1,7.52.81,32.16,32.16,0,0,1,14.09,7.12,36.49,36.49,0,0,1,7,8.39,27.84,27.84,0,0,0,1.65,2.55,8.91,8.91,0,0,0,2.17-.33,49.41,49.41,0,0,1,6.62-.63c5.22-.24,5.37-.3,4.26-2.41a19.72,19.72,0,0,1-1-2.31,11.8,11.8,0,0,0-1.05-2.25,12.24,12.24,0,0,1-.84-1.5,54.72,54.72,0,0,0-5.95-8,47.09,47.09,0,0,0-13.2-9.92l-3.4-1.68a47.77,47.77,0,0,0-5.46-1.84c-5-1.6-12.88-2.12-19.16-1.27Zm51.28,52.33c5.53,1.41,8.6,3.21,11.84,7s4.63,7.36,4.79,13.05c.12,3.52.06,4-.66,6.27a19.85,19.85,0,0,1-3.56,7,21.59,21.59,0,0,1-11.15,7.27,58.3,58.3,0,0,1-6.19.69c-5.56.36-50.7.39-50.92,0-.08-.16,3.11-3.44,7.1-7.28S104,125,105,124c3.24-3.19,15.69-15.09,17.46-16.69.66-.59,1.29-1.22,1.9-1.87a35.82,35.82,0,0,1,6.28-4.51,26.28,26.28,0,0,1,3.85-1.56c1.23-.36,2.4-.73,2.55-.78A27.18,27.18,0,0,1,144.55,98.88Z" fill="#2ee0e5"/></svg>