<svg id="图层_1" data-name="图层 1" xmlns="http://www.w3.org/2000/svg" viewBox="0 0 200.2 200"><title>VMWARE</title><path d="M163.86,25H95.13A11.25,11.25,0,0,0,83.89,36.24V83.79H36.34A11.25,11.25,0,0,0,25.1,95v68.73A11.25,11.25,0,0,0,36.34,175h68.73a11.25,11.25,0,0,0,11.24-11.24V116.21h47.55A11.25,11.25,0,0,0,175.1,105V36.24A11.25,11.25,0,0,0,163.86,25Zm8.65,80a8.66,8.66,0,0,1-8.65,8.65H113.72v50.14a8.66,8.66,0,0,1-8.65,8.65H36.34a8.66,8.66,0,0,1-8.65-8.65V95a8.66,8.66,0,0,1,8.65-8.65H86.48V36.24a8.66,8.66,0,0,1,8.65-8.65h68.73a8.66,8.66,0,0,1,8.65,8.65ZM41.78,158.31H100.1V100H41.78ZM100.1,100h58.32V41.68H100.1Z" fill="#2ee0e5"/></svg>