<?xml version="1.0" encoding="utf-8"?>
<!-- Generator: Adobe Illustrator 22.1.0, SVG Export Plug-In . SVG Version: 6.00 Build 0)  -->
<svg version="1.1" id="图层_1" xmlns="http://www.w3.org/2000/svg" xmlns:xlink="http://www.w3.org/1999/xlink" x="0px" y="0px"
	 viewBox="0 0 200 200" style="enable-background:new 0 0 200 200;" xml:space="preserve">
<style type="text/css">
	.st0{fill:#2EE0E5;}
</style>
<g>
	<path class="st0" d="M25.3,133c-1.8,0-3.2,1.4-3.2,3.2s1.4,3.2,3.2,3.2c1.8,0,3.2-1.4,3.2-3.2C28.6,134.5,27.1,133,25.3,133z"/>
	<path class="st0" d="M30.9,146.2c1.7,0,3-1.3,3-3s-1.3-3-3-3s-3,1.3-3,3C27.9,144.9,29.2,146.2,30.9,146.2z"/>
	<path class="st0" d="M30.8,149c0-1.7-1.3-3-3-3s-3,1.3-3,3s1.3,3,3,3C29.4,152.1,30.8,150.7,30.8,149z"/>
	<path class="st0" d="M24.6,151.9c-1.7,0-3,1.3-3,3s1.3,3,3,3s3-1.3,3-3S26.3,151.9,24.6,151.9z"/>
	<path class="st0" d="M21.5,157.7c-1.7,0-3,1.3-3,3s1.3,3,3,3s3-1.3,3-3C24.5,159.1,23.1,157.7,21.5,157.7z"/>
	<path class="st0" d="M37.4,145.1c-1.5,0-2.8,1.2-2.8,2.8c0,1.5,1.2,2.8,2.8,2.8c1.5,0,2.8-1.2,2.8-2.8S38.9,145.1,37.4,145.1z"/>
	<path class="st0" d="M35.3,151.2c-1.5,0-2.8,1.2-2.8,2.8c0,1.5,1.2,2.8,2.8,2.8c1.5,0,2.8-1.2,2.8-2.8
		C38.1,152.5,36.8,151.2,35.3,151.2z"/>
	<path class="st0" d="M33.2,157.4c-1.5,0-2.8,1.2-2.8,2.8c0,1.5,1.2,2.8,2.8,2.8c1.5,0,2.8-1.2,2.8-2.8
		C36,158.6,34.7,157.4,33.2,157.4z"/>
	<path class="st0" d="M31.1,163.5c-1.5,0-2.8,1.2-2.8,2.8c0,1.5,1.2,2.8,2.8,2.8c1.5,0,2.8-1.2,2.8-2.8S32.6,163.5,31.1,163.5z"/>
	<path class="st0" d="M45.5,147.6c-1.5,0-2.6,1.2-2.6,2.6c0,1.5,1.2,2.6,2.6,2.6c1.5,0,2.6-1.2,2.6-2.6S47,147.6,45.5,147.6z"/>
	<path class="st0" d="M44.6,154.1c-1.5,0-2.6,1.2-2.6,2.6c0,1.5,1.2,2.6,2.6,2.6c1.5,0,2.6-1.2,2.6-2.6
		C47.2,155.2,46,154.1,44.6,154.1z"/>
	<path class="st0" d="M43.6,160.5c-1.5,0-2.6,1.2-2.6,2.6c0,1.5,1.2,2.6,2.6,2.6c1.5,0,2.6-1.2,2.6-2.6
		C46.3,161.7,45.1,160.5,43.6,160.5z"/>
	<path class="st0" d="M42.7,167c-1.5,0-2.6,1.2-2.6,2.6c0,1.5,1.2,2.6,2.6,2.6c1.5,0,2.6-1.2,2.6-2.6S44.1,167,42.7,167z"/>
	<path class="st0" d="M18.3,141.7c0,1.8,1.4,3.2,3.2,3.2s3.2-1.4,3.2-3.2s-1.4-3.2-3.2-3.2S18.3,139.9,18.3,141.7z"/>
	<path class="st0" d="M20.8,147.1c0-1.8-1.4-3.2-3.2-3.2s-3.2,1.4-3.2,3.2s1.4,3.2,3.2,3.2S20.8,148.9,20.8,147.1z"/>
	<path class="st0" d="M13.7,149.3c-1.8,0-3.2,1.4-3.2,3.2s1.4,3.2,3.2,3.2s3.2-1.4,3.2-3.2C16.9,150.8,15.5,149.3,13.7,149.3z"/>
	<path class="st0" d="M56.5,149.8c0-1.3-1.1-2.4-2.4-2.4c-1.3,0-2.4,1.1-2.4,2.4c0,1.3,1.1,2.4,2.4,2.4
		C55.4,152.3,56.5,151.2,56.5,149.8z"/>
	<path class="st0" d="M57.7,156.5c0-1.3-1.1-2.4-2.4-2.4c-1.3,0-2.4,1.1-2.4,2.4c0,1.3,1.1,2.4,2.4,2.4
		C56.6,158.9,57.7,157.8,57.7,156.5z"/>
	<path class="st0" d="M58.9,163.1c0-1.3-1.1-2.4-2.4-2.4c-1.3,0-2.4,1.1-2.4,2.4c0,1.3,1.1,2.4,2.4,2.4
		C57.8,165.5,58.9,164.4,58.9,163.1z"/>
	<path class="st0" d="M57.7,167.2c-1.3,0-2.4,1.1-2.4,2.4c0,1.3,1.1,2.4,2.4,2.4c1.3,0,2.4-1.1,2.4-2.4
		C60.1,168.3,59,167.2,57.7,167.2z"/>
	<circle class="st0" cx="62.3" cy="146.4" r="2.2"/>
	<circle class="st0" cx="65" cy="152.8" r="2.2"/>
	<circle class="st0" cx="67.6" cy="159.2" r="2.2"/>
	<circle class="st0" cx="70.2" cy="165.6" r="2.2"/>
	<path class="st0" d="M71.2,141.5c0-1-0.8-1.8-1.8-1.8s-1.8,0.8-1.8,1.8s0.8,1.8,1.8,1.8C70.4,143.2,71.2,142.5,71.2,141.5z"/>
	<path class="st0" d="M73.4,145.8c-1,0-1.8,0.8-1.8,1.8s0.8,1.8,1.8,1.8s1.8-0.8,1.8-1.8C75.2,146.6,74.4,145.8,73.4,145.8z"/>
	<path class="st0" d="M76.9,151.8c-1,0-1.8,0.8-1.8,1.8s0.8,1.8,1.8,1.8s1.8-0.8,1.8-1.8C78.7,152.6,77.9,151.8,76.9,151.8z"/>
	<path class="st0" d="M81.5,157.9c-1,0-1.8,0.8-1.8,1.8s0.8,1.8,1.8,1.8s1.8-0.8,1.8-1.8C83.2,158.7,82.5,157.9,81.5,157.9z"/>
	<path class="st0" d="M76.5,135.8c0-0.7-0.6-1.3-1.3-1.3s-1.3,0.6-1.3,1.3s0.6,1.3,1.3,1.3S76.5,136.6,76.5,135.8z"/>
	<path class="st0" d="M81.5,141.3c0-0.7-0.6-1.3-1.3-1.3s-1.3,0.6-1.3,1.3s0.6,1.3,1.3,1.3S81.5,142,81.5,141.3z"/>
	<path class="st0" d="M85.1,145.8c-0.7,0-1.3,0.6-1.3,1.3s0.6,1.3,1.3,1.3c0.7,0,1.3-0.6,1.3-1.3C86.4,146.3,85.8,145.8,85.1,145.8z
		"/>
		<path class="st0" d="M90.1,151.5c-0.7,0-1.3,0.6-1.3,1.3s0.6,1.3,1.3,1.3c0.7,0,1.3-0.6,1.3-1.3C91.3,152.1,90.8,151.5,90.1,151.5z
		"/>
	<path class="st0" d="M81.7,130.1c0-0.5-0.4-0.9-0.9-0.9s-0.9,0.4-0.9,0.9s0.4,0.9,0.9,0.9C81.3,131.1,81.7,130.6,81.7,130.1z"/>
	<path class="st0" d="M86,134.9c-0.5,0-0.9,0.4-0.9,0.9s0.4,0.9,0.9,0.9s0.9-0.4,0.9-0.9S86.5,134.9,86,134.9z"/>
	<path class="st0" d="M91.2,140.6c-0.5,0-0.9,0.4-0.9,0.9s0.4,0.9,0.9,0.9s0.9-0.4,0.9-0.9S91.7,140.6,91.2,140.6z"/>
	<path class="st0" d="M96.4,146.2c-0.5,0-0.9,0.4-0.9,0.9s0.4,0.9,0.9,0.9s0.9-0.4,0.9-0.9C97.3,146.6,96.9,146.2,96.4,146.2z"/>
	<path class="st0" d="M175.6,117.2c1.8,0,3.2-1.4,3.2-3.2c0-1.8-1.4-3.2-3.2-3.2s-3.2,1.4-3.2,3.2
		C172.3,115.7,173.8,117.2,175.6,117.2z"/>
	<path class="st0" d="M170,104c-1.7,0-3,1.3-3,3s1.3,3,3,3s3-1.3,3-3S171.7,104,170,104z"/>
	<path class="st0" d="M170.1,101.2c0,1.7,1.3,3,3,3s3-1.3,3-3s-1.3-3-3-3C171.5,98.2,170.1,99.5,170.1,101.2z"/>
	<path class="st0" d="M176.3,98.4c1.7,0,3-1.3,3-3s-1.3-3-3-3s-3,1.3-3,3C173.3,97,174.6,98.4,176.3,98.4z"/>
	<path class="st0" d="M179.4,92.5c1.7,0,3-1.3,3-3s-1.3-3-3-3s-3,1.3-3,3S177.8,92.5,179.4,92.5z"/>
	<circle class="st0" cx="163.5" cy="102.4" r="2.8"/>
	<path class="st0" d="M165.6,99c1.5,0,2.8-1.2,2.8-2.8c0-1.5-1.2-2.8-2.8-2.8c-1.5,0-2.8,1.2-2.8,2.8S164.1,99,165.6,99z"/>
	<path class="st0" d="M167.7,92.9c1.5,0,2.8-1.2,2.8-2.8c0-1.5-1.2-2.8-2.8-2.8c-1.5,0-2.8,1.2-2.8,2.8
		C164.9,91.6,166.2,92.9,167.7,92.9z"/>
	<path class="st0" d="M169.8,86.7c1.5,0,2.8-1.2,2.8-2.8c0-1.5-1.2-2.8-2.8-2.8s-2.8,1.2-2.8,2.8S168.3,86.7,169.8,86.7z"/>
	<path class="st0" d="M155.4,102.6c1.5,0,2.6-1.2,2.6-2.6c0-1.5-1.2-2.6-2.6-2.6c-1.5,0-2.6,1.2-2.6,2.6
		C152.8,101.5,153.9,102.6,155.4,102.6z"/>
	<circle class="st0" cx="156.3" cy="93.5" r="2.6"/>
	<path class="st0" d="M157.3,89.7c1.5,0,2.6-1.2,2.6-2.6s-1.2-2.6-2.6-2.6c-1.5,0-2.6,1.2-2.6,2.6S155.8,89.7,157.3,89.7z"/>
	<path class="st0" d="M158.2,83.2c1.5,0,2.6-1.2,2.6-2.6c0-1.5-1.2-2.6-2.6-2.6c-1.5,0-2.6,1.2-2.6,2.6
		C155.6,82,156.8,83.2,158.2,83.2z"/>
	<path class="st0" d="M182.6,108.5c0-1.8-1.4-3.2-3.2-3.2s-3.2,1.4-3.2,3.2c0,1.8,1.4,3.2,3.2,3.2
		C181.2,111.8,182.6,110.3,182.6,108.5z"/>
	<path class="st0" d="M180.1,103.1c0,1.8,1.4,3.2,3.2,3.2s3.2-1.4,3.2-3.2c0-1.8-1.4-3.2-3.2-3.2S180.1,101.3,180.1,103.1z"/>
	<path class="st0" d="M187.2,100.9c1.8,0,3.2-1.4,3.2-3.2c0-1.8-1.4-3.2-3.2-3.2s-3.2,1.4-3.2,3.2
		C183.9,99.5,185.4,100.9,187.2,100.9z"/>
	<path class="st0" d="M144.4,100.4c0,1.3,1.1,2.4,2.4,2.4c1.3,0,2.4-1.1,2.4-2.4s-1.1-2.4-2.4-2.4C145.5,97.9,144.4,99,144.4,100.4z
		"/>
	<path class="st0" d="M145.6,96.2c1.3,0,2.4-1.1,2.4-2.4s-1.1-2.4-2.4-2.4c-1.3,0-2.4,1.1-2.4,2.4C143.2,95.1,144.3,96.2,145.6,96.2
		z"/>
	<path class="st0" d="M144.4,89.6c1.3,0,2.4-1.1,2.4-2.4s-1.1-2.4-2.4-2.4c-1.3,0-2.4,1.1-2.4,2.4S143.1,89.6,144.4,89.6z"/>
	<path class="st0" d="M145.6,80.5c0-1.3-1.1-2.4-2.4-2.4c-1.3,0-2.4,1.1-2.4,2.4s1.1,2.4,2.4,2.4C144.5,83,145.6,81.9,145.6,80.5z"
		/>
	<circle class="st0" cx="138.5" cy="103.9" r="2.2"/>
	<circle class="st0" cx="135.9" cy="97.4" r="2.2"/>
	<circle class="st0" cx="133.3" cy="91" r="2.2"/>
	<circle class="st0" cx="130.7" cy="84.6" r="2.2"/>
	<path class="st0" d="M131.5,110.5c1,0,1.8-0.8,1.8-1.8s-0.8-1.8-1.8-1.8s-1.8,0.8-1.8,1.8S130.5,110.5,131.5,110.5z"/>
	<path class="st0" d="M129.2,102.7c0-1-0.8-1.8-1.8-1.8s-1.8,0.8-1.8,1.8s0.8,1.8,1.8,1.8C128.4,104.4,129.2,103.6,129.2,102.7z"/>
	<path class="st0" d="M125.7,96.6c0-1-0.8-1.8-1.8-1.8s-1.8,0.8-1.8,1.8s0.8,1.8,1.8,1.8C124.9,98.4,125.7,97.6,125.7,96.6z"/>
	<path class="st0" d="M121.1,90.6c0-1-0.8-1.8-1.8-1.8s-1.8,0.8-1.8,1.8s0.8,1.8,1.8,1.8C120.4,92.3,121.1,91.6,121.1,90.6z"/>
	<path class="st0" d="M125.6,115.6c0.7,0,1.3-0.6,1.3-1.3c0-0.7-0.6-1.3-1.3-1.3s-1.3,0.6-1.3,1.3
		C124.3,115.1,124.9,115.6,125.6,115.6z"/>
	<path class="st0" d="M122,109c0-0.7-0.6-1.3-1.3-1.3c-0.7,0-1.3,0.6-1.3,1.3c0,0.7,0.6,1.3,1.3,1.3C121.4,110.2,122,109.7,122,109z
		"/>
	<path class="st0" d="M117,103.2c0-0.7-0.6-1.3-1.3-1.3c-0.7,0-1.3,0.6-1.3,1.3c0,0.7,0.6,1.3,1.3,1.3
		C116.5,104.5,117,103.9,117,103.2z"/>
		<path class="st0" d="M112.1,97.4c0-0.7-0.6-1.3-1.3-1.3c-0.7,0-1.3,0.6-1.3,1.3c0,0.7,0.6,1.3,1.3,1.3
		C111.5,98.7,112.1,98.1,112.1,97.4z"/>
	<path class="st0" d="M120.1,121c0.5,0,0.9-0.4,0.9-0.9s-0.4-0.9-0.9-0.9s-0.9,0.4-0.9,0.9S119.6,121,120.1,121z"/>
	<path class="st0" d="M114.9,113.5c-0.5,0-0.9,0.4-0.9,0.9s0.4,0.9,0.9,0.9s0.9-0.4,0.9-0.9S115.4,113.5,114.9,113.5z"/>
	<path class="st0" d="M108.8,108.8c0,0.5,0.4,0.9,0.9,0.9s0.9-0.4,0.9-0.9s-0.4-0.9-0.9-0.9S108.8,108.3,108.8,108.8z"/>
	<path class="st0" d="M103.6,103.1c0,0.5,0.4,0.9,0.9,0.9s0.9-0.4,0.9-0.9s-0.4-0.9-0.9-0.9S103.6,102.6,103.6,103.1z"/>
	<path class="st0" d="M195.3,104.2c-0.6-1.2-2.2-1.4-3.1-0.4l-15,16.9c-1.3,1.5-2.2,3.4-2.3,5.4c-0.1,1.8-0.3,3.9-0.7,5
		c-2.7,9.6-11.6,16.7-22.1,16.7c-13.2-0.1-23.5-9.6-34.2-21.7l-9.1-10.6l-0.1-0.2l-0.7-0.9l-8.5-9.8c-2-2.2-4-4.3-6.1-6.3l0,0
		c-9.1-8.8-15.7-17.8-15.7-28.6c0-12.7,10.3-22.9,22.9-23c12.7,0,22.9,10.3,22.9,23c0,2.9-0.6,5.7-1.6,8.4c-0.5,1.3,0.9,2.5,2.1,1.8
		c6.5-3.6,13.6-6.2,21.7-7.1c1.5-0.2,2.7-1.4,2.7-2.9v-0.2c0-26.4-21.5-47.8-47.8-47.8c-26.4,0-47.8,21.5-47.8,47.8
		c0,2.6,0.2,5.1,0.6,7.5C52,77.1,50.5,77,49,77C22.5,77.1,1.1,98.5,1,124.9c0,7.4,1.7,14.4,4.7,20.7c0.6,1.2,2.2,1.4,3.1,0.4
		l14.9-16.8c1.4-1.6,2.2-3.6,2.3-5.7c0-1.1,0.1-2.1,0.2-2.7c2-10.7,11.3-18.8,22.6-18.8c13.2,0,23.5,9.6,34.2,21.7l9.1,10.6l0,0
		l1.1,1.3l0,0l8.3,9.6c13.5,14.8,29.1,27.6,50.6,27.6c26.4,0,47.8-21.5,47.8-47.8C200,117.5,198.3,110.5,195.3,104.2z"/>
</g>
</svg>
